<svg xmlns="http://www.w3.org/2000/svg" viewBox="0 0 64 64" role="img" aria-label="LINE Pay">
  <rect width="64" height="64" rx="14" fill="#06C755"/>
  <path fill="#fff" d="M32 14.5c-10.2 0-18.5 6.9-18.5 15.4 0 7.6 6.4 14 15.1 15.2.5.1 1 .4 1.2.9l.7 2.7c.2.7.9.9 1.4.5l3.2-1.9c.3-.2.7-.2 1.1-.2 10.3-.2 19.3-7 19.3-16.2 0-8.5-8.3-15.4-23.5-15.4z"/>
  <!-- four chat dots suggesting LINE app mark -->
  <circle cx="23.5" cy="29.5" r="2.2" fill="#06C755"/>
  <circle cx="29.5" cy="29.5" r="2.2" fill="#06C755"/>
  <circle cx="35.5" cy="29.5" r="2.2" fill="#06C755"/>
  <circle cx="41.5" cy="29.5" r="2.2" fill="#06C755"/>
</svg>
